<svg data-v-423bf9ae="" xmlns="http://www.w3.org/2000/svg" viewBox="0 0 1409 90" class="iconLeft"><!----><!----><!----><g data-v-423bf9ae="" id="78ed2f09-6e99-4eb3-8003-9e1133bab868" fill="#1A3E80" transform="matrix(5.964215028353327,0,0,5.964215028353327,119.57083140731379,-7.186880314530519)"><path d="M10.36 13.58L10.36 3.92L7.84 3.92L7.84 8.05C7.84 8.61 7.85 9.60 7.92 10.58L4.26 3.92L1.12 3.92L1.12 13.58L3.64 13.58L3.64 9.59C3.64 9.03 3.64 8.18 3.56 7.20L7.07 13.58ZM17.67 11.07L18.48 13.58L21.22 13.58L17.74 3.92L14.66 3.92L11.17 13.58L13.85 13.58L14.66 11.07ZM16.17 6.15L17.07 9.11L15.27 9.11ZM29.22 3.92L26.70 3.92L26.70 9.79C26.70 10.08 26.70 10.39 26.67 10.71C26.60 11.48 26.24 11.93 25.54 11.93C24.82 11.93 24.32 11.56 24.23 10.30L24.21 9.88L21.69 9.88L21.70 10.30C21.77 12.40 22.85 13.78 25.47 13.78C27.97 13.78 29.08 12.56 29.18 10.86C29.22 10.15 29.22 9.84 29.22 9.39ZM42.11 3.92L38.28 3.92L36.64 11.13L35 3.92L31.07 3.92L31.07 13.58L33.59 13.58L33.59 9.52C33.59 8.68 33.59 7.43 33.56 6.45C33.71 7.43 33.99 8.68 34.22 9.52L35.29 13.58L37.88 13.58L38.95 9.52C39.17 8.67 39.45 7.43 39.62 6.45C39.59 7.43 39.59 8.68 39.59 9.52L39.59 13.58L42.11 13.58ZM49.42 11.07L50.23 13.58L52.98 13.58L49.49 3.92L46.41 3.92L42.92 13.58L45.60 13.58L46.41 11.07ZM47.92 6.15L48.82 9.11L47.03 9.11ZM60.77 5.88L60.77 3.92L51.98 3.92L51.98 5.88L55.12 5.88L55.12 13.58L57.64 13.58L57.64 5.88ZM69.65 11.07L70.46 13.58L73.21 13.58L69.72 3.92L66.64 3.92L63.15 13.58L65.83 13.58L66.64 11.07ZM68.15 6.15L69.05 9.11L67.26 9.11ZM81.52 11.45L76.64 11.45L76.64 3.92L74.12 3.92L74.12 13.58L81.52 13.58ZM92.78 11.62L87.89 11.62L87.89 9.72L92.36 9.72L92.36 7.76L87.89 7.76L87.89 5.88L92.64 5.88L92.64 3.92L85.37 3.92L85.37 13.58L92.78 13.58ZM103.56 13.58L103.56 3.92L101.04 3.92L101.04 8.05C101.04 8.61 101.05 9.60 101.12 10.58L97.45 3.92L94.32 3.92L94.32 13.58L96.84 13.58L96.84 9.59C96.84 9.03 96.84 8.18 96.75 7.20L100.27 13.58ZM110.04 8.43L110.04 10.39L111.92 10.39C111.57 11.45 110.92 11.93 109.94 11.93C108.75 11.93 107.70 11.10 107.70 8.67C107.70 6.58 108.72 5.57 109.96 5.57C110.98 5.57 111.61 6.06 111.82 7.10L111.85 7.24L114.37 7.24L114.35 7.10C114.16 5.19 112.74 3.72 109.98 3.72C107.34 3.72 105.07 5.46 105.07 8.82C105.07 12.07 106.88 13.78 109.45 13.78C110.47 13.78 111.13 13.62 111.68 13.16L112.10 12.10L112.34 13.58L114.30 13.58L114.30 8.43ZM118.58 13.58L118.58 3.92L116.06 3.92L116.06 13.58ZM129.70 13.58L129.70 3.92L127.18 3.92L127.18 8.05C127.18 8.61 127.19 9.60 127.26 10.58L123.59 3.92L120.46 3.92L120.46 13.58L122.98 13.58L122.98 9.59C122.98 9.03 122.98 8.18 122.89 7.20L126.41 13.58ZM138.98 11.62L134.09 11.62L134.09 9.72L138.56 9.72L138.56 7.76L134.09 7.76L134.09 5.88L138.84 5.88L138.84 3.92L131.57 3.92L131.57 13.58L138.98 13.58ZM147.92 11.62L143.04 11.62L143.04 9.72L147.50 9.72L147.50 7.76L143.04 7.76L143.04 5.88L147.78 5.88L147.78 3.92L140.52 3.92L140.52 13.58L147.92 13.58ZM157.00 11.23C156.86 10.07 156.49 9.32 155.48 8.96C156.77 8.58 157.43 7.77 157.43 6.55C157.43 4.84 156.21 4.16 154.81 3.99C154.29 3.93 153.90 3.92 153.30 3.92L149.46 3.92L149.46 13.58L151.98 13.58L151.98 9.91L152.54 9.91C152.82 9.91 153.06 9.91 153.34 9.93C153.99 9.97 154.41 10.58 154.53 11.65C154.62 12.33 154.76 12.89 154.98 13.58L157.72 13.58C157.35 13.01 157.12 12.32 157.00 11.23ZM151.98 8.09L151.98 5.88L152.96 5.88C153.23 5.88 153.45 5.88 153.64 5.89C154.28 5.95 154.80 6.17 154.80 6.99C154.80 7.80 154.21 8.02 153.57 8.08C153.38 8.09 153.16 8.09 152.89 8.09ZM161.53 13.58L161.53 3.92L159.01 3.92L159.01 13.58ZM172.65 13.58L172.65 3.92L170.13 3.92L170.13 8.05C170.13 8.61 170.14 9.60 170.21 10.58L166.54 3.92L163.41 3.92L163.41 13.58L165.93 13.58L165.93 9.59C165.93 9.03 165.93 8.18 165.84 7.20L169.36 13.58ZM179.13 8.43L179.13 10.39L181.01 10.39C180.66 11.45 180.01 11.93 179.03 11.93C177.84 11.93 176.79 11.10 176.79 8.67C176.79 6.58 177.81 5.57 179.05 5.57C180.07 5.57 180.70 6.06 180.91 7.10L180.94 7.24L183.46 7.24L183.44 7.10C183.25 5.19 181.83 3.72 179.07 3.72C176.43 3.72 174.16 5.46 174.16 8.82C174.16 12.07 175.97 13.78 178.54 13.78C179.56 13.78 180.22 13.62 180.77 13.16L181.19 12.10L181.43 13.58L183.39 13.58L183.39 8.43ZM195.02 11.45L190.13 11.45L190.13 3.92L187.61 3.92L187.61 13.58L195.02 13.58ZM202.40 5.88L202.40 3.92L193.61 3.92L193.61 5.88L196.74 5.88L196.74 13.58L199.26 13.58L199.26 5.88ZM208.26 3.98C207.77 3.92 207.55 3.92 207.03 3.92L203.38 3.92L203.38 13.58L207.03 13.58C207.55 13.58 207.77 13.58 208.26 13.52C210.50 13.27 212.35 11.65 212.35 8.62C212.35 5.60 210.50 4.23 208.26 3.98ZM207.59 11.59C207.27 11.62 207.05 11.62 206.68 11.62L205.90 11.62L205.90 5.88L206.68 5.88C207.05 5.88 207.27 5.88 207.59 5.91C208.85 6.02 209.72 6.94 209.72 8.67C209.72 10.39 208.85 11.48 207.59 11.59ZM214.70 10.98C213.88 10.98 213.30 11.55 213.30 12.38C213.30 13.20 213.88 13.78 214.70 13.78C215.53 13.78 216.10 13.20 216.10 12.38C216.10 11.55 215.53 10.98 214.70 10.98Z"></path></g><!----><g data-v-423bf9ae="" id="0402d310-b3ad-4ed7-bfa2-bbf103d6d648" transform="matrix(1.4611468545188735,0,0,1.4611468545188735,-19.4350847183906,-27.849296679382718)" stroke="none" fill="#003A6C"><path d="M65.4 27.2L36.9 63a13.3 13.3 0 0 1 1.7 7.1 12.3 12.3 0 0 1-.2 2l7.9-10.2 16.7 12a14.6 14.6 0 0 1-1.6-6.6 14 14 0 0 1 .6-4.1l-10.6-7.9 6.1-7.9 10.8 8a13.6 13.6 0 0 1 7-1.9h2L61.4 42.2l1.7-2.1a12.9 12.9 0 0 0 3.1-7.9 11.7 11.7 0 0 0-.8-5z"></path><circle cx="75.3" cy="67.3" r="11.1"></circle><path d="M24.7 35.6l6.7 4.9 6-7.9-5.9-4.4a11.8 11.8 0 0 1 5-1.1 11.3 11.3 0 0 1 4.5.9l1.8-2.4h.1a12.3 12.3 0 0 1 11.3-6.4 12.9 12.9 0 0 1 4 .8L29.3 56.5a18.6 18.6 0 0 0-4.1-.8 15.9 15.9 0 0 0-6.6 1.4L26.4 47a12.6 12.6 0 0 1-2.4-7.4 10.5 10.5 0 0 1 .7-4zM25.1 58.6h-.4a11.1 11.1 0 0 0-8.1 18.6 11.3 11.3 0 0 0 7.7 3.5 11.1 11.1 0 1 0 .8-22.1z"></path></g><!----></svg>