<svg data-v-423bf9ae="" xmlns="http://www.w3.org/2000/svg" viewBox="0 0 603 90" class="iconLeft"><!----><!----><!----><g data-v-423bf9ae="" id="b5ae8d83-4ac4-493a-89c1-58f0deeefa9a" fill="#ffffff" transform="matrix(5.988024248455585,0,0,5.988024248455585,111.82896747966558,-9.49101865937186)"><path d="M0.95 14L0.95 14Q0.84 14 0.77 13.93L0.77 13.93L0.77 13.93Q0.70 13.86 0.70 13.75L0.70 13.75L0.70 4.45L0.70 4.45Q0.70 4.34 0.77 4.27L0.77 4.27L0.77 4.27Q0.84 4.20 0.95 4.20L0.95 4.20L2.67 4.20L2.67 4.20Q2.87 4.20 2.97 4.37L2.97 4.37L6.05 9.58L6.05 9.58Q6.08 9.63 6.12 9.62L6.12 9.62L6.12 9.62Q6.16 9.60 6.16 9.53L6.16 9.53L6.15 4.45L6.15 4.45Q6.15 4.34 6.22 4.27L6.22 4.27L6.22 4.27Q6.29 4.20 6.40 4.20L6.40 4.20L8.19 4.20L8.19 4.20Q8.30 4.20 8.37 4.27L8.37 4.27L8.37 4.27Q8.44 4.34 8.44 4.45L8.44 4.45L8.44 13.75L8.44 13.75Q8.44 13.86 8.37 13.93L8.37 13.93L8.37 13.93Q8.30 14 8.19 14L8.19 14L6.47 14L6.47 14Q6.29 14 6.17 13.83L6.17 13.83L3.09 8.55L3.09 8.55Q3.07 8.48 3.02 8.50L3.02 8.50L3.02 8.50Q2.97 8.51 2.97 8.58L2.97 8.58L3.00 13.75L3.00 13.75Q3.00 13.86 2.93 13.93L2.93 13.93L2.93 13.93Q2.86 14 2.74 14L2.74 14L0.95 14ZM13.92 7.01L13.92 7.01Q13.92 6.90 13.99 6.83L13.99 6.83L13.99 6.83Q14.06 6.76 14.17 6.76L14.17 6.76L15.99 6.76L15.99 6.76Q16.10 6.76 16.17 6.83L16.17 6.83L16.17 6.83Q16.24 6.90 16.24 7.01L16.24 7.01L16.24 13.75L16.24 13.75Q16.24 13.86 16.17 13.93L16.17 13.93L16.17 13.93Q16.10 14 15.99 14L15.99 14L14.17 14L14.17 14Q14.06 14 13.99 13.93L13.99 13.93L13.99 13.93Q13.92 13.86 13.92 13.75L13.92 13.75L13.92 13.40L13.92 13.40Q13.92 13.33 13.88 13.31L13.88 13.31L13.88 13.31Q13.85 13.30 13.80 13.36L13.80 13.36L13.80 13.36Q13.22 14.11 12.07 14.11L12.07 14.11L12.07 14.11Q11.00 14.11 10.35 13.44L10.35 13.44L10.35 13.44Q9.69 12.77 9.69 11.56L9.69 11.56L9.69 7.01L9.69 7.01Q9.69 6.90 9.76 6.83L9.76 6.83L9.76 6.83Q9.83 6.76 9.94 6.76L9.94 6.76L11.76 6.76L11.76 6.76Q11.87 6.76 11.94 6.83L11.94 6.83L11.94 6.83Q12.01 6.90 12.01 7.01L12.01 7.01L12.01 11.03L12.01 11.03Q12.01 11.52 12.26 11.82L12.26 11.82L12.26 11.82Q12.52 12.11 12.95 12.11L12.95 12.11L12.95 12.11Q13.34 12.11 13.60 11.87L13.60 11.87L13.60 11.87Q13.86 11.63 13.92 11.24L13.92 11.24L13.92 7.01ZM20.50 14.11L20.50 14.11Q19.50 14.11 18.77 13.84L18.77 13.84L18.77 13.84Q18.03 13.57 17.63 13.07L17.63 13.07L17.63 13.07Q17.23 12.57 17.23 11.93L17.23 11.93L17.23 11.86L17.23 11.86Q17.23 11.75 17.30 11.68L17.30 11.68L17.30 11.68Q17.37 11.61 17.49 11.61L17.49 11.61L19.21 11.61L19.21 11.61Q19.46 11.61 19.46 11.69L19.46 11.69L19.46 11.77L19.46 11.77Q19.46 12.04 19.75 12.21L19.75 12.21L19.75 12.21Q20.03 12.39 20.48 12.39L20.48 12.39L20.48 12.39Q20.87 12.39 21.11 12.26L21.11 12.26L21.11 12.26Q21.35 12.12 21.35 11.90L21.35 11.90L21.35 11.90Q21.35 11.68 21.10 11.57L21.10 11.57L21.10 11.57Q20.85 11.47 20.30 11.37L20.30 11.37L20.30 11.37Q19.42 11.20 18.87 10.96L18.87 10.96L18.87 10.96Q18.17 10.67 17.75 10.22L17.75 10.22L17.75 10.22Q17.32 9.77 17.32 9.02L17.32 9.02L17.32 9.02Q17.32 7.92 18.16 7.29L18.16 7.29L18.16 7.29Q19.01 6.65 20.40 6.65L20.40 6.65L20.40 6.65Q21.34 6.65 22.04 6.95L22.04 6.95L22.04 6.95Q22.75 7.25 23.14 7.80L23.14 7.80L23.14 7.80Q23.53 8.34 23.53 9.06L23.53 9.06L23.53 9.06Q23.53 9.13 23.46 9.18L23.46 9.18L23.46 9.18Q23.39 9.23 23.28 9.23L23.28 9.23L21.62 9.23L21.62 9.23Q21.36 9.23 21.36 9.14L21.36 9.14L21.36 9.06L21.36 9.06Q21.36 8.79 21.11 8.62L21.11 8.62L21.11 8.62Q20.86 8.46 20.43 8.46L20.43 8.46L20.43 8.46Q20.03 8.46 19.79 8.59L19.79 8.59L19.79 8.59Q19.54 8.72 19.54 8.96L19.54 8.96L19.54 8.96Q19.54 9.20 19.81 9.30L19.81 9.30L19.81 9.30Q20.08 9.41 20.71 9.53L20.71 9.53L20.71 9.53Q21.56 9.70 21.85 9.80L21.85 9.80L21.85 9.80Q22.71 10.08 23.19 10.56L23.19 10.56L23.19 10.56Q23.67 11.03 23.67 11.83L23.67 11.83L23.67 11.83Q23.67 12.92 22.81 13.52L22.81 13.52L22.81 13.52Q21.95 14.11 20.50 14.11L20.50 14.11ZM28.42 6.66L28.42 6.66Q28.87 6.66 29.15 6.82L29.15 6.82L29.15 6.82Q29.33 6.92 29.29 7.13L29.29 7.13L28.98 8.92L28.98 8.92Q28.97 9.10 28.80 9.10L28.80 9.10L28.80 9.10Q28.73 9.10 28.69 9.09L28.69 9.09L28.69 9.09Q28.52 9.04 28.27 9.04L28.27 9.04L28.27 9.04Q28.04 9.04 27.93 9.07L27.93 9.07L27.93 9.07Q27.50 9.13 27.20 9.41L27.20 9.41L27.20 9.41Q26.89 9.69 26.89 10.15L26.89 10.15L26.89 13.75L26.89 13.75Q26.89 13.86 26.82 13.93L26.82 13.93L26.82 13.93Q26.75 14 26.64 14L26.64 14L24.82 14L24.82 14Q24.71 14 24.64 13.93L24.64 13.93L24.64 13.93Q24.57 13.86 24.57 13.75L24.57 13.75L24.57 7.01L24.57 7.01Q24.57 6.90 24.64 6.83L24.64 6.83L24.64 6.83Q24.71 6.76 24.82 6.76L24.82 6.76L26.64 6.76L26.64 6.76Q26.75 6.76 26.82 6.83L26.82 6.83L26.82 6.83Q26.89 6.90 26.89 7.01L26.89 7.01L26.89 7.32L26.89 7.32Q26.89 7.39 26.93 7.41L26.93 7.41L26.93 7.41Q26.96 7.42 26.99 7.36L26.99 7.36L26.99 7.36Q27.55 6.66 28.42 6.66L28.42 6.66ZM33.07 6.65L33.07 6.65Q33.99 6.65 34.75 6.96L34.75 6.96L34.75 6.96Q35.50 7.28 35.94 7.83L35.94 7.83L35.94 7.83Q36.37 8.39 36.37 9.06L36.37 9.06L36.37 13.75L36.37 13.75Q36.37 13.86 36.30 13.93L36.30 13.93L36.30 13.93Q36.23 14 36.12 14L36.12 14L34.30 14L34.30 14Q34.19 14 34.12 13.93L34.12 13.93L34.12 13.93Q34.05 13.86 34.05 13.75L34.05 13.75L34.05 13.47L34.05 13.47Q34.05 13.40 34.01 13.38L34.01 13.38L34.01 13.38Q33.98 13.37 33.94 13.43L33.94 13.43L33.94 13.43Q33.38 14.11 32.13 14.11L32.13 14.11L32.13 14.11Q31.02 14.11 30.37 13.59L30.37 13.59L30.37 13.59Q29.71 13.06 29.71 12.04L29.71 12.04L29.71 12.04Q29.71 10.96 30.46 10.37L30.46 10.37L30.46 10.37Q31.21 9.79 32.62 9.79L32.62 9.79L33.95 9.79L33.95 9.79Q34.05 9.79 34.05 9.69L34.05 9.69L34.05 9.45L34.05 9.45Q34.05 9.07 33.80 8.86L33.80 8.86L33.80 8.86Q33.56 8.64 33.11 8.64L33.11 8.64L33.11 8.64Q32.79 8.64 32.56 8.74L32.56 8.74L32.56 8.74Q32.33 8.85 32.23 9.03L32.23 9.03L32.23 9.03Q32.16 9.13 32.09 9.18L32.09 9.18L32.09 9.18Q32.03 9.23 31.93 9.21L31.93 9.21L30.06 8.97L30.06 8.97Q29.81 8.95 29.83 8.78L29.83 8.78L29.83 8.78Q29.90 8.18 30.34 7.69L30.34 7.69L30.34 7.69Q30.77 7.21 31.48 6.93L31.48 6.93L31.48 6.93Q32.19 6.65 33.07 6.65L33.07 6.65ZM32.83 12.45L32.83 12.45Q33.36 12.45 33.70 12.17L33.70 12.17L33.70 12.17Q34.05 11.90 34.05 11.45L34.05 11.45L34.05 11.14L34.05 11.14Q34.05 11.05 33.95 11.05L33.95 11.05L33.14 11.05L33.14 11.05Q32.61 11.05 32.32 11.23L32.32 11.23L32.32 11.23Q32.03 11.41 32.03 11.77L32.03 11.77L32.03 11.77Q32.03 12.08 32.24 12.26L32.24 12.26L32.24 12.26Q32.45 12.45 32.83 12.45L32.83 12.45ZM41.99 8.37L41.99 8.37Q41.99 8.48 41.92 8.55L41.92 8.55L41.92 8.55Q41.85 8.62 41.73 8.62L41.73 8.62L40.57 8.62L40.57 8.62Q40.47 8.62 40.47 8.72L40.47 8.72L40.47 11.17L40.47 11.17Q40.47 11.97 41.12 11.97L41.12 11.97L41.55 11.97L41.55 11.97Q41.66 11.97 41.73 12.04L41.73 12.04L41.73 12.04Q41.80 12.11 41.80 12.22L41.80 12.22L41.80 13.69L41.80 13.69Q41.80 13.92 41.57 13.94L41.57 13.94L41.57 13.94Q40.92 13.97 40.66 13.97L40.66 13.97L40.66 13.97Q39.44 13.97 38.85 13.58L38.85 13.58L38.85 13.58Q38.26 13.19 38.25 12.12L38.25 12.12L38.25 8.72L38.25 8.72Q38.25 8.62 38.15 8.62L38.15 8.62L37.46 8.62L37.46 8.62Q37.35 8.62 37.28 8.55L37.28 8.55L37.28 8.55Q37.21 8.48 37.21 8.37L37.21 8.37L37.21 7.01L37.21 7.01Q37.21 6.90 37.28 6.83L37.28 6.83L37.28 6.83Q37.35 6.76 37.46 6.76L37.46 6.76L38.15 6.76L38.15 6.76Q38.25 6.76 38.25 6.66L38.25 6.66L38.25 5.08L38.25 5.08Q38.25 4.97 38.32 4.90L38.32 4.90L38.32 4.90Q38.39 4.83 38.50 4.83L38.50 4.83L40.22 4.83L40.22 4.83Q40.33 4.83 40.40 4.90L40.40 4.90L40.40 4.90Q40.47 4.97 40.47 5.08L40.47 5.08L40.47 6.66L40.47 6.66Q40.47 6.76 40.57 6.76L40.57 6.76L41.73 6.76L41.73 6.76Q41.85 6.76 41.92 6.83L41.92 6.83L41.92 6.83Q41.99 6.90 41.99 7.01L41.99 7.01L41.99 8.37ZM46.52 14.11L46.52 14.11Q45.40 14.11 44.55 13.74L44.55 13.74L44.55 13.74Q43.71 13.37 43.25 12.68L43.25 12.68L43.25 12.68Q42.78 11.98 42.78 11.07L42.78 11.07L42.78 10.89L42.78 10.89Q42.78 10.78 42.85 10.71L42.85 10.71L42.85 10.71Q42.92 10.64 43.04 10.64L43.04 10.64L44.81 10.64L44.81 10.64Q44.93 10.64 45.00 10.69L45.00 10.69L45.00 10.69Q45.07 10.74 45.07 10.81L45.07 10.81L45.07 10.98L45.07 10.98Q45.07 11.42 45.52 11.77L45.52 11.77L45.52 11.77Q45.98 12.12 46.69 12.12L46.69 12.12L46.69 12.12Q47.31 12.12 47.60 11.86L47.60 11.86L47.60 11.86Q47.89 11.59 47.89 11.24L47.89 11.24L47.89 11.24Q47.89 10.85 47.55 10.64L47.55 10.64L47.55 10.64Q47.21 10.43 46.33 10.15L46.33 10.15L46.02 10.05L46.02 10.05Q45.12 9.76 44.45 9.41L44.45 9.41L44.45 9.41Q43.78 9.07 43.30 8.46L43.30 8.46L43.30 8.46Q42.83 7.85 42.83 6.96L42.83 6.96L42.83 6.96Q42.83 6.09 43.28 5.44L43.28 5.44L43.28 5.44Q43.74 4.79 44.54 4.44L44.54 4.44L44.54 4.44Q45.35 4.09 46.37 4.09L46.37 4.09L46.37 4.09Q47.45 4.09 48.31 4.48L48.31 4.48L48.31 4.48Q49.17 4.87 49.66 5.59L49.66 5.59L49.66 5.59Q50.15 6.30 50.15 7.22L50.15 7.22L50.15 7.34L50.15 7.34Q50.15 7.45 50.08 7.52L50.08 7.52L50.08 7.52Q50.01 7.59 49.90 7.59L49.90 7.59L48.12 7.59L48.12 7.59Q48.01 7.59 47.94 7.55L47.94 7.55L47.94 7.55Q47.87 7.52 47.87 7.45L47.87 7.45L47.87 7.32L47.87 7.32Q47.87 6.83 47.43 6.45L47.43 6.45L47.43 6.45Q47.00 6.08 46.27 6.08L46.27 6.08L46.27 6.08Q45.72 6.08 45.42 6.30L45.42 6.30L45.42 6.30Q45.11 6.52 45.11 6.93L45.11 6.93L45.11 6.93Q45.11 7.24 45.30 7.44L45.30 7.44L45.30 7.44Q45.50 7.64 45.91 7.82L45.91 7.82L45.91 7.82Q46.33 7.99 47.18 8.27L47.18 8.27L47.18 8.27Q48.16 8.61 48.71 8.86L48.71 8.86L48.71 8.86Q49.25 9.11 49.73 9.68L49.73 9.68L49.73 9.68Q50.22 10.25 50.22 11.17L50.22 11.17L50.22 11.17Q50.22 12.05 49.76 12.72L49.76 12.72L49.76 12.72Q49.29 13.38 48.45 13.75L48.45 13.75L48.45 13.75Q47.61 14.11 46.52 14.11L46.52 14.11ZM55.72 8.37L55.72 8.37Q55.72 8.48 55.65 8.55L55.65 8.55L55.65 8.55Q55.58 8.62 55.47 8.62L55.47 8.62L54.31 8.62L54.31 8.62Q54.21 8.62 54.21 8.72L54.21 8.72L54.21 11.17L54.21 11.17Q54.21 11.97 54.85 11.97L54.85 11.97L55.29 11.97L55.29 11.97Q55.40 11.97 55.47 12.04L55.47 12.04L55.47 12.04Q55.54 12.11 55.54 12.22L55.54 12.22L55.54 13.69L55.54 13.69Q55.54 13.92 55.30 13.94L55.30 13.94L55.30 13.94Q54.66 13.97 54.39 13.97L54.39 13.97L54.39 13.97Q53.17 13.97 52.58 13.58L52.58 13.58L52.58 13.58Q52.00 13.19 51.98 12.12L51.98 12.12L51.98 8.72L51.98 8.72Q51.98 8.62 51.88 8.62L51.88 8.62L51.20 8.62L51.20 8.62Q51.09 8.62 51.02 8.55L51.02 8.55L51.02 8.55Q50.95 8.48 50.95 8.37L50.95 8.37L50.95 7.01L50.95 7.01Q50.95 6.90 51.02 6.83L51.02 6.83L51.02 6.83Q51.09 6.76 51.20 6.76L51.20 6.76L51.88 6.76L51.88 6.76Q51.98 6.76 51.98 6.66L51.98 6.66L51.98 5.08L51.98 5.08Q51.98 4.97 52.05 4.90L52.05 4.90L52.05 4.90Q52.12 4.83 52.23 4.83L52.23 4.83L53.96 4.83L53.96 4.83Q54.07 4.83 54.14 4.90L54.14 4.90L54.14 4.90Q54.21 4.97 54.21 5.08L54.21 5.08L54.21 6.66L54.21 6.66Q54.21 6.76 54.31 6.76L54.31 6.76L55.47 6.76L55.47 6.76Q55.58 6.76 55.65 6.83L55.65 6.83L55.65 6.83Q55.72 6.90 55.72 7.01L55.72 7.01L55.72 8.37ZM60.30 12.14L60.30 12.14Q60.73 12.14 61.10 12.00L61.10 12.00L61.10 12.00Q61.47 11.87 61.73 11.65L61.73 11.65L61.73 11.65Q61.81 11.55 61.91 11.55L61.91 11.55L61.91 11.55Q61.99 11.55 62.08 11.65L62.08 11.65L62.94 12.68L62.94 12.68Q63.03 12.78 63.03 12.87L63.03 12.87L63.03 12.87Q63.03 12.96 62.94 13.05L62.94 13.05L62.94 13.05Q62.47 13.55 61.74 13.83L61.74 13.83L61.74 13.83Q61.01 14.11 60.19 14.11L60.19 14.11L60.19 14.11Q59.23 14.11 58.50 13.77L58.50 13.77L58.50 13.77Q57.76 13.43 57.29 12.81L57.29 12.81L57.29 12.81Q56.52 11.83 56.52 10.32L56.52 10.32L56.52 10.32Q56.52 9.65 56.67 9.06L56.67 9.06L56.67 9.06Q56.98 7.97 57.88 7.30L57.88 7.30L57.88 7.30Q58.77 6.64 59.98 6.64L59.98 6.64L59.98 6.64Q61.38 6.64 62.24 7.50L62.24 7.50L62.24 7.50Q63.10 8.37 63.36 9.93L63.36 9.93L63.36 9.93Q63.42 10.32 63.45 10.78L63.45 10.78L63.45 10.78Q63.45 11.03 63.20 11.03L63.20 11.03L58.97 11.03L58.97 11.03Q58.93 11.03 58.89 11.06L58.89 11.06L58.89 11.06Q58.86 11.09 58.87 11.14L58.87 11.14L58.95 11.42L58.95 11.42Q59.09 11.76 59.44 11.95L59.44 11.95L59.44 11.95Q59.79 12.14 60.30 12.14L60.30 12.14ZM59.93 8.64L59.93 8.64Q59.22 8.64 58.97 9.32L58.97 9.32L58.97 9.32Q58.91 9.46 58.90 9.53L58.90 9.53L58.90 9.56L58.90 9.56Q58.90 9.65 59.00 9.65L59.00 9.65L60.91 9.65L60.91 9.65Q60.97 9.65 60.99 9.61L60.99 9.61L60.99 9.61Q61.01 9.58 61.00 9.53L61.00 9.53L60.94 9.35L60.94 9.35Q60.83 9.02 60.58 8.83L60.58 8.83L60.58 8.83Q60.33 8.64 59.93 8.64L59.93 8.64ZM68.03 12.14L68.03 12.14Q68.46 12.14 68.83 12.00L68.83 12.00L68.83 12.00Q69.20 11.87 69.45 11.65L69.45 11.65L69.45 11.65Q69.54 11.55 69.64 11.55L69.64 11.55L69.64 11.55Q69.72 11.55 69.80 11.65L69.80 11.65L70.67 12.68L70.67 12.68Q70.76 12.78 70.76 12.87L70.76 12.87L70.76 12.87Q70.76 12.96 70.67 13.05L70.67 13.05L70.67 13.05Q70.20 13.55 69.47 13.83L69.47 13.83L69.47 13.83Q68.74 14.11 67.91 14.11L67.91 14.11L67.91 14.11Q66.96 14.11 66.23 13.77L66.23 13.77L66.23 13.77Q65.49 13.43 65.02 12.81L65.02 12.81L65.02 12.81Q64.25 11.83 64.25 10.32L64.25 10.32L64.25 10.32Q64.25 9.65 64.40 9.06L64.40 9.06L64.40 9.06Q64.71 7.97 65.60 7.30L65.60 7.30L65.60 7.30Q66.50 6.64 67.70 6.64L67.70 6.64L67.70 6.64Q69.10 6.64 69.96 7.50L69.96 7.50L69.96 7.50Q70.83 8.37 71.09 9.93L71.09 9.93L71.09 9.93Q71.15 10.32 71.18 10.78L71.18 10.78L71.18 10.78Q71.18 11.03 70.92 11.03L70.92 11.03L66.70 11.03L66.70 11.03Q66.65 11.03 66.62 11.06L66.62 11.06L66.62 11.06Q66.58 11.09 66.60 11.14L66.60 11.14L66.68 11.42L66.68 11.42Q66.82 11.76 67.17 11.95L67.17 11.95L67.17 11.95Q67.52 12.14 68.03 12.14L68.03 12.14ZM67.66 8.64L67.66 8.64Q66.95 8.64 66.70 9.32L66.70 9.32L66.70 9.32Q66.64 9.46 66.63 9.53L66.63 9.53L66.63 9.56L66.63 9.56Q66.63 9.65 66.72 9.65L66.72 9.65L68.64 9.65L68.64 9.65Q68.70 9.65 68.72 9.61L68.72 9.61L68.72 9.61Q68.74 9.58 68.73 9.53L68.73 9.53L68.67 9.35L68.67 9.35Q68.56 9.02 68.31 8.83L68.31 8.83L68.31 8.83Q68.05 8.64 67.66 8.64L67.66 8.64ZM72.39 14L72.39 14Q72.28 14 72.21 13.93L72.21 13.93L72.21 13.93Q72.14 13.86 72.14 13.75L72.14 13.75L72.14 4.45L72.14 4.45Q72.14 4.34 72.21 4.27L72.21 4.27L72.21 4.27Q72.28 4.20 72.39 4.20L72.39 4.20L74.21 4.20L74.21 4.20Q74.33 4.20 74.40 4.27L74.40 4.27L74.40 4.27Q74.47 4.34 74.47 4.45L74.47 4.45L74.47 13.75L74.47 13.75Q74.47 13.86 74.40 13.93L74.40 13.93L74.40 13.93Q74.33 14 74.21 14L74.21 14L72.39 14ZM78.76 14.11L78.76 14.11Q77.77 14.11 77.03 13.84L77.03 13.84L77.03 13.84Q76.30 13.57 75.90 13.07L75.90 13.07L75.90 13.07Q75.50 12.57 75.50 11.93L75.50 11.93L75.50 11.86L75.50 11.86Q75.50 11.75 75.57 11.68L75.57 11.68L75.57 11.68Q75.64 11.61 75.75 11.61L75.75 11.61L77.48 11.61L77.48 11.61Q77.73 11.61 77.73 11.69L77.73 11.69L77.73 11.77L77.73 11.77Q77.73 12.04 78.02 12.21L78.02 12.21L78.02 12.21Q78.30 12.39 78.75 12.39L78.75 12.39L78.75 12.39Q79.14 12.39 79.38 12.26L79.38 12.26L79.38 12.26Q79.62 12.12 79.62 11.90L79.62 11.90L79.62 11.90Q79.62 11.68 79.37 11.57L79.37 11.57L79.37 11.57Q79.11 11.47 78.57 11.37L78.57 11.37L78.57 11.37Q77.69 11.20 77.14 10.96L77.14 10.96L77.14 10.96Q76.44 10.67 76.01 10.22L76.01 10.22L76.01 10.22Q75.59 9.77 75.59 9.02L75.59 9.02L75.59 9.02Q75.59 7.92 76.43 7.29L76.43 7.29L76.43 7.29Q77.28 6.65 78.67 6.65L78.67 6.65L78.67 6.65Q79.60 6.65 80.31 6.95L80.31 6.95L80.31 6.95Q81.02 7.25 81.41 7.80L81.41 7.80L81.41 7.80Q81.80 8.34 81.80 9.06L81.80 9.06L81.80 9.06Q81.80 9.13 81.73 9.18L81.73 9.18L81.73 9.18Q81.66 9.23 81.55 9.23L81.55 9.23L79.88 9.23L79.88 9.23Q79.63 9.23 79.63 9.14L79.63 9.14L79.63 9.06L79.63 9.06Q79.63 8.79 79.38 8.62L79.38 8.62L79.38 8.62Q79.13 8.46 78.69 8.46L78.69 8.46L78.69 8.46Q78.30 8.46 78.06 8.59L78.06 8.59L78.06 8.59Q77.81 8.72 77.81 8.96L77.81 8.96L77.81 8.96Q77.81 9.20 78.08 9.30L78.08 9.30L78.08 9.30Q78.34 9.41 78.97 9.53L78.97 9.53L78.97 9.53Q79.83 9.70 80.12 9.80L80.12 9.80L80.12 9.80Q80.98 10.08 81.46 10.56L81.46 10.56L81.46 10.56Q81.94 11.03 81.94 11.83L81.94 11.83L81.94 11.83Q81.94 12.92 81.08 13.52L81.08 13.52L81.08 13.52Q80.22 14.11 78.76 14.11L78.76 14.11Z"></path></g><!----><g data-v-423bf9ae="" id="b348b9a3-4a67-480f-bf82-f69ab01f3fe0" transform="matrix(1.1636175393311583,0,0,1.1636175393311583,-8.276848508908373,-15.223234705002056)" stroke="none" fill="#00A3DD"><path d="M90.26 27.63h-.006v-.193l-.086.178-4.357-.793-.145.796 4.135.752L64.4 80.583 42.001 73.09l.043-.809 18.954-19.839 7.479 1.298 21.777-35.422v-2.761l-26.16-1.969L7.741 34.927v8.993L32 48.232l-.03 2.552L11.548 64.89l-.119-.025.007.103-.055.038.058.013.664 9.293 53.742 16.621 24.408-57.317V27.66l.007-.03zM64.371 15.502l23.996 1.807v.328L68.186 43.368l-56.756-7.82 52.941-20.046zM13.895 72.889l-.404-5.654 20.123 4.292.292-24.872-24.278-4.317V36.23l.22-.083 57.896 7.977.211 6.861-.416.677-26.034-4.521L40.1 73.279l.31.017-.035.103 24.674 8.255.191 5.886-.463 1.087-50.882-15.738z"></path></g><!----></svg>